{"title":"Star Trek - The Original Series","uid":8577781,"size":29787963266,"categoryP":"video","categoryS":"tv_shows","magnet":"?xt=urn:btih:ae7a3f6993d7e5abe2f5e05297867321471bacb8&amp;dn=Star+Trek+-+The+Original+Series&amp;tr=udp%3A%2F%2Ftracker.openbittorrent.com%3A80&amp;tr=udp%3A%2F%2Fopen.demonii.com%3A1337&amp;tr=udp%3A%2F%2Ftracker.coppersurfer.tk%3A6969&amp;tr=udp%3A%2F%2Fexodus.desync.com%3A6969","seeders":2,"leechers":0,"uploader":"zlivuk","files":-1,"time":1371322944,"description":"Short info:\nNot remastered. Not enhanced. Croatian srt subtitles.\n\nTechnical info (based on the first episode):\nGeneral\nComplete name                            : 01 - Where No Man Has Gone Before.avi\nFormat                                   : AVI\nFormat/Info                              : Audio Video Interleave\nFile size                                : 350 MiB\nDuration                                 : 50mn 23s\nOverall bit rate mode                    : Variable\nOverall bit rate                         : 971 Kbps\nWriting application                      : Nandub v1.0rc2\nWriting library                          : Nandub build 1853/release\n\nVideo\nID                                       : 0\nFormat                                   : MPEG-4 Visual\nCodec ID                                 : DIV3\nCodec ID/Hint                            : DivX 3 Low\nDuration                                 : 50mn 23s\nBit rate                                 : 857 Kbps\nWidth                                    : 512 pixels\nHeight                                   : 384 pixels\nDisplay aspect ratio                     : 4:3\nFrame rate                               : 23.976 fps\nColor space                              : YUV\nChroma subsampling                       : 4:2:0\nBit depth                                : 8 bits\nCompression mode                         : Lossy\nBits/(Pixel*Frame)                       : 0.182\nStream size                              : 309 MiB (88%)\n\nAudio\nID                                       : 1\nFormat                                   : MPEG Audio\nFormat version                           : Version 1\nFormat profile                           : Layer 3\nMode                                     : Joint stereo\nMode extension                           : MS Stereo\nCodec ID                                 : 55\nCodec ID/Hint                            : MP3\nDuration                                 : 50mn 23s\nBit rate mode                            : Variable\nBit rate                                 : 102 Kbps\nChannel(s)                               : 2 channels\nSampling rate                            : 48.0 KHz\nCompression mode                         : Lossy\nStream size                              : 36.7 MiB (10%)\nAlignment                                : Aligned on interleaves\nInterleave, duration                     : 24 ms (0.58 video frame)\nInterleave, preload duration             : 528 ms\nWriting library                          : LAME3.89 (beta)","torrent":{"xt":"urn:btih:ae7a3f6993d7e5abe2f5e05297867321471bacb8","amp;dn":"Star+Trek+-+The+Original+Series","amp;tr":["udp%3A%2F%2Ftracker.openbittorrent.com%3A80","udp%3A%2F%2Fopen.demonii.com%3A1337","udp%3A%2F%2Ftracker.coppersurfer.tk%3A6969","udp%3A%2F%2Fexodus.desync.com%3A6969"],"infoHash":"ae7a3f6993d7e5abe2f5e05297867321471bacb8","infoHashBuffer":{"type":"Buffer","data":[174,122,63,105,147,215,229,171,226,245,224,82,151,134,115,33,71,27,172,184]},"announce":[],"urlList":[]}}